<svg xmlns="http://www.w3.org/2000/svg" viewBox="0 0 512 512" role="img" aria-labelledby="title desc">
  <title id="title">Wearable IMU Activity Segmentation Pipeline logo</title>
  <desc id="desc">Three inertial-sensor streams divided into aligned temporal activity segments.</desc>
  <g fill="none" stroke-linecap="round" stroke-linejoin="round" stroke-width="42">
    <path d="M55 145C96 113 128 187 171 159" stroke="#165DFF"/>
    <path d="M211 154C245 137 252 93 294 88C337 84 344 140 374 151" stroke="#165DFF"/>
    <path d="M414 155C436 158 447 173 458 180" stroke="#165DFF"/>

    <path d="M55 252C97 222 130 283 171 270" stroke="#12B8B0"/>
    <path d="M211 265C246 252 255 199 294 205C334 212 342 265 374 266" stroke="#12B8B0"/>
    <path d="M414 266C435 266 447 275 458 282" stroke="#12B8B0"/>

    <path d="M55 359C96 328 131 394 171 365" stroke="#FFB800"/>
    <path d="M211 360C249 341 255 294 295 300C335 307 342 355 374 368" stroke="#FFB800"/>
    <path d="M414 371C436 374 448 385 458 392" stroke="#FFB800"/>
  </g>
  <circle cx="485" cy="184" r="21" fill="#FF5A5F"/>
  <circle cx="485" cy="286" r="21" fill="#12B8B0"/>
  <circle cx="485" cy="396" r="21" fill="#FFB800"/>
</svg>
